<svg width="181" height="143" viewBox="0 0 181 143" fill="none" xmlns="http://www.w3.org/2000/svg">
<g id="Isolation_Mode" clip-path="url(#clip0_32_459)">
<path id="Vector" d="M38.86 0C51.8272 0 62.2175 4.64366 70.1142 13.8895C78.0109 23.1769 81.9176 35.2836 81.9176 50.2925C81.9176 69.8623 76.1406 88.1052 64.5865 105.021C53.0324 121.979 38.6937 134.625 21.5289 143L18.3702 136.698C25.7266 131.101 32.2102 123.969 37.7794 115.221C43.3902 106.473 47.3801 95.6512 49.8322 82.7567L38.8184 80.1447C26.5578 77.3668 17.0402 72.2256 10.2242 64.6796C3.36653 57.1751 -0.0415039 48.178 -0.0415039 37.6883C-0.0415039 26.5352 3.69902 17.4552 11.2632 10.4482C18.8274 3.48275 28.0125 0 38.86 0Z" fill="#FFF7E8"/>
<path id="Vector_2" d="M137.942 0C150.91 0 161.3 4.64366 169.197 13.8895C177.093 23.1769 181 35.2836 181 50.2925C181 69.8623 175.223 88.1052 163.669 105.021C152.115 121.979 137.735 134.625 120.611 143L117.453 136.698C124.809 131.101 131.293 123.969 136.862 115.221C142.473 106.473 146.504 95.6512 148.956 82.7567L137.942 80.1447C125.682 77.3668 116.164 72.2256 109.307 64.6796C102.491 57.1751 99.0825 48.178 99.0825 37.6883C99.0825 26.5352 102.823 17.4552 110.346 10.4482C117.868 3.48275 127.095 0 137.942 0Z" fill="#FFF7E8"/>
</g>
<defs>
<clipPath id="clip0_32_459">
<rect width="181" height="143" fill="white"/>
</clipPath>
</defs>
</svg>
