<svg width="295" height="73" viewBox="0 0 295 73" fill="none" xmlns="http://www.w3.org/2000/svg">
<path d="M20.1827 56.17C16.2307 56.17 12.7987 55.364 9.88667 53.752C6.97467 52.088 4.71267 49.748 3.10067 46.732C1.54067 43.716 0.760672 40.18 0.760672 36.124C0.760672 32.068 1.59267 28.558 3.25667 25.594C4.97267 22.63 7.28667 20.342 10.1987 18.73C13.1627 17.118 16.4907 16.312 20.1827 16.312C23.8747 16.312 27.1767 17.118 30.0887 18.73C33.0007 20.29 35.2887 22.552 36.9527 25.516C38.6687 28.48 39.5267 32.016 39.5267 36.124C39.5267 40.232 38.7207 43.794 37.1087 46.81C35.5487 49.774 33.3127 52.088 30.4007 53.752C27.5407 55.364 24.1347 56.17 20.1827 56.17ZM20.1827 54.61C22.0027 54.61 23.4587 54.09 24.5507 53.05C25.6427 52.01 26.4227 50.164 26.8907 47.512C27.4107 44.86 27.6707 41.116 27.6707 36.28C27.6707 31.392 27.4107 27.622 26.8907 24.97C26.4227 22.318 25.6427 20.472 24.5507 19.432C23.4587 18.392 22.0027 17.872 20.1827 17.872C18.3627 17.872 16.8807 18.392 15.7367 19.432C14.6447 20.472 13.8387 22.318 13.3187 24.97C12.8507 27.622 12.6167 31.392 12.6167 36.28C12.6167 41.116 12.8507 44.86 13.3187 47.512C13.8387 50.164 14.6447 52.01 15.7367 53.05C16.8807 54.09 18.3627 54.61 20.1827 54.61ZM42.1909 72.94V72.16L43.1269 71.848C45.0509 71.328 46.0129 70.08 46.0129 68.104V25.672C46.0129 24.528 45.8049 23.67 45.3889 23.098C45.0249 22.526 44.3229 22.136 43.2829 21.928L42.1909 21.694V20.914L55.4509 16.39L56.2309 17.17L56.9329 19.588C58.6489 18.548 60.5469 17.742 62.6269 17.17C64.7589 16.598 66.9429 16.312 69.1789 16.312C73.6509 16.312 77.1869 18.028 79.7869 21.46C82.4389 24.84 83.7649 29.702 83.7649 36.046C83.7649 42.286 82.3089 47.2 79.3969 50.788C76.5369 54.376 72.4809 56.17 67.2289 56.17C63.1209 56.17 59.6629 55.572 56.8549 54.376V67.87C56.8549 69.95 57.7909 71.25 59.6629 71.77L61.1449 72.16V72.94H42.1909ZM63.4849 53.908C66.0849 53.908 68.1389 52.556 69.6469 49.852C71.2069 47.148 71.9869 42.65 71.9869 36.358C71.9869 30.066 71.2589 25.672 69.8029 23.176C68.3469 20.628 66.2409 19.354 63.4849 19.354C61.5609 19.354 59.4289 19.978 57.0889 21.226V52.66C59.0649 53.492 61.1969 53.908 63.4849 53.908ZM96.6446 12.256C94.8766 12.256 93.3686 11.71 92.1206 10.618C90.9246 9.474 90.3266 8.044 90.3266 6.328C90.3266 4.56 90.9246 3.13 92.1206 2.038C93.3686 0.945997 94.8766 0.399996 96.6446 0.399996C98.4126 0.399996 99.8946 0.945997 101.091 2.038C102.287 3.13 102.885 4.56 102.885 6.328C102.885 8.044 102.287 9.474 101.091 10.618C99.8946 11.71 98.4126 12.256 96.6446 12.256ZM87.4406 55V54.22L88.5326 53.908C89.5726 53.596 90.2746 53.128 90.6386 52.504C91.0546 51.88 91.2626 51.048 91.2626 50.008V25.594C91.2626 24.502 91.0546 23.696 90.6386 23.176C90.2746 22.604 89.5726 22.214 88.5326 22.006L87.4406 21.772V20.992L101.715 16.39L102.495 17.17L102.261 28.246V50.086C102.261 51.126 102.443 51.958 102.807 52.582C103.223 53.206 103.925 53.674 104.913 53.986L105.693 54.22V55H87.4406ZM109.146 55V54.22L110.238 53.908C112.058 53.388 112.968 52.114 112.968 50.086V25.672C112.968 24.528 112.786 23.696 112.422 23.176C112.058 22.604 111.356 22.214 110.316 22.006L109.146 21.694V20.914L122.484 16.39L123.264 17.17L123.888 21.85C125.708 20.238 127.762 18.912 130.05 17.872C132.338 16.832 134.6 16.312 136.836 16.312C140.268 16.312 142.894 17.248 144.714 19.12C146.586 20.992 147.522 23.852 147.522 27.7V50.164C147.522 52.192 148.51 53.466 150.486 53.986L151.188 54.22V55H132.78V54.22L133.794 53.908C135.614 53.336 136.524 52.062 136.524 50.086V25.204C136.524 21.876 134.86 20.212 131.532 20.212C129.244 20.212 126.748 21.356 124.044 23.644V50.164C124.044 52.192 124.954 53.466 126.774 53.986L127.476 54.22V55H109.146ZM163.6 12.256C161.832 12.256 160.324 11.71 159.076 10.618C157.88 9.474 157.282 8.044 157.282 6.328C157.282 4.56 157.88 3.13 159.076 2.038C160.324 0.945997 161.832 0.399996 163.6 0.399996C165.368 0.399996 166.85 0.945997 168.046 2.038C169.242 3.13 169.84 4.56 169.84 6.328C169.84 8.044 169.242 9.474 168.046 10.618C166.85 11.71 165.368 12.256 163.6 12.256ZM154.396 55V54.22L155.488 53.908C156.528 53.596 157.23 53.128 157.594 52.504C158.01 51.88 158.218 51.048 158.218 50.008V25.594C158.218 24.502 158.01 23.696 157.594 23.176C157.23 22.604 156.528 22.214 155.488 22.006L154.396 21.772V20.992L168.67 16.39L169.45 17.17L169.216 28.246V50.086C169.216 51.126 169.398 51.958 169.762 52.582C170.178 53.206 170.88 53.674 171.868 53.986L172.648 54.22V55H154.396ZM195.835 56.17C191.883 56.17 188.451 55.364 185.539 53.752C182.627 52.088 180.365 49.748 178.753 46.732C177.193 43.716 176.413 40.18 176.413 36.124C176.413 32.068 177.245 28.558 178.909 25.594C180.625 22.63 182.939 20.342 185.851 18.73C188.815 17.118 192.143 16.312 195.835 16.312C199.527 16.312 202.829 17.118 205.741 18.73C208.653 20.29 210.941 22.552 212.605 25.516C214.321 28.48 215.179 32.016 215.179 36.124C215.179 40.232 214.373 43.794 212.761 46.81C211.201 49.774 208.965 52.088 206.053 53.752C203.193 55.364 199.787 56.17 195.835 56.17ZM195.835 54.61C197.655 54.61 199.111 54.09 200.203 53.05C201.295 52.01 202.075 50.164 202.543 47.512C203.063 44.86 203.323 41.116 203.323 36.28C203.323 31.392 203.063 27.622 202.543 24.97C202.075 22.318 201.295 20.472 200.203 19.432C199.111 18.392 197.655 17.872 195.835 17.872C194.015 17.872 192.533 18.392 191.389 19.432C190.297 20.472 189.491 22.318 188.971 24.97C188.503 27.622 188.269 31.392 188.269 36.28C188.269 41.116 188.503 44.86 188.971 47.512C189.491 50.164 190.297 52.01 191.389 53.05C192.533 54.09 194.015 54.61 195.835 54.61ZM218.605 55V54.22L219.697 53.908C221.517 53.388 222.427 52.114 222.427 50.086V25.672C222.427 24.528 222.245 23.696 221.881 23.176C221.517 22.604 220.815 22.214 219.775 22.006L218.605 21.694V20.914L231.943 16.39L232.723 17.17L233.347 21.85C235.167 20.238 237.221 18.912 239.509 17.872C241.797 16.832 244.059 16.312 246.295 16.312C249.727 16.312 252.353 17.248 254.173 19.12C256.045 20.992 256.981 23.852 256.981 27.7V50.164C256.981 52.192 257.969 53.466 259.945 53.986L260.647 54.22V55H242.239V54.22L243.253 53.908C245.073 53.336 245.983 52.062 245.983 50.086V25.204C245.983 21.876 244.319 20.212 240.991 20.212C238.703 20.212 236.207 21.356 233.503 23.644V50.164C233.503 52.192 234.413 53.466 236.233 53.986L236.935 54.22V55H218.605ZM277.193 56.17C274.645 56.17 272.357 55.858 270.329 55.234C268.301 54.662 266.429 53.934 264.713 53.05L264.791 43.768H265.571L268.223 48.448C269.367 50.528 270.615 52.088 271.967 53.128C273.371 54.116 275.139 54.61 277.271 54.61C279.767 54.61 281.769 54.064 283.277 52.972C284.837 51.828 285.617 50.32 285.617 48.448C285.617 46.732 285.071 45.328 283.979 44.236C282.887 43.144 280.859 42.156 277.895 41.272L274.619 40.258C271.447 39.322 268.951 37.866 267.131 35.89C265.311 33.914 264.401 31.496 264.401 28.636C264.401 25.204 265.753 22.292 268.457 19.9C271.161 17.508 275.035 16.312 280.079 16.312C282.107 16.312 284.005 16.546 285.773 17.014C287.593 17.43 289.335 18.08 290.999 18.964L290.531 27.388H289.751L287.021 22.552C286.033 20.836 285.045 19.64 284.057 18.964C283.121 18.236 281.691 17.872 279.767 17.872C277.999 17.872 276.335 18.366 274.775 19.354C273.215 20.342 272.435 21.746 272.435 23.566C272.435 25.334 273.085 26.738 274.385 27.778C275.737 28.818 277.713 29.78 280.313 30.664L283.823 31.678C287.567 32.822 290.245 34.408 291.857 36.436C293.469 38.412 294.275 40.804 294.275 43.612C294.275 47.408 292.767 50.45 289.751 52.738C286.787 55.026 282.601 56.17 277.193 56.17Z" fill="#FFF7E7"/>
</svg>
